<svg width="425" height="609" viewBox="0 0 425 609" fill="none" xmlns="http://www.w3.org/2000/svg">
<path d="M181 122.5C232.667 122.5 272.333 131.667 300 150C327.667 168 341.5 197.667 341.5 239C341.5 280.667 327.5 310.833 299.5 329.5C271.5 347.833 231.5 357 179.5 357H155V473H77V131.5C94 128.167 112 125.833 131 124.5C150 123.167 166.667 122.5 181 122.5ZM186 189C180.333 189 174.667 189.167 169 189.5C163.667 189.833 159 190.167 155 190.5V290.5H179.5C206.5 290.5 226.833 286.833 240.5 279.5C254.167 272.167 261 258.5 261 238.5C261 228.833 259.167 220.833 255.5 214.5C252.167 208.167 247.167 203.167 240.5 199.5C234.167 195.5 226.333 192.833 217 191.5C207.667 189.833 197.333 189 186 189Z" fill="#85D4D6"/>
<path d="M196 137.5C247.667 137.5 287.333 146.667 315 165C342.667 183 356.5 212.667 356.5 254C356.5 295.667 342.5 325.833 314.5 344.5C286.5 362.833 246.5 372 194.5 372H170V488H92V146.5C109 143.167 127 140.833 146 139.5C165 138.167 181.667 137.5 196 137.5ZM201 204C195.333 204 189.667 204.167 184 204.5C178.667 204.833 174 205.167 170 205.5V305.5H194.5C221.5 305.5 241.833 301.833 255.5 294.5C269.167 287.167 276 273.5 276 253.5C276 243.833 274.167 235.833 270.5 229.5C267.167 223.167 262.167 218.167 255.5 214.5C249.167 210.5 241.333 207.833 232 206.5C222.667 204.833 212.333 204 201 204Z" fill="#DFC47E"/>
<path d="M211 156.5C262.667 156.5 302.333 165.667 330 184C357.667 202 371.5 231.667 371.5 273C371.5 314.667 357.5 344.833 329.5 363.5C301.5 381.833 261.5 391 209.5 391H185V507H107V165.5C124 162.167 142 159.833 161 158.5C180 157.167 196.667 156.5 211 156.5ZM216 223C210.333 223 204.667 223.167 199 223.5C193.667 223.833 189 224.167 185 224.5V324.5H209.5C236.5 324.5 256.833 320.833 270.5 313.5C284.167 306.167 291 292.5 291 272.5C291 262.833 289.167 254.833 285.5 248.5C282.167 242.167 277.167 237.167 270.5 233.5C264.167 229.5 256.333 226.833 247 225.5C237.667 223.833 227.333 223 216 223Z" fill="#0A78DD"/>
</svg>
